<?xml version="1.0" encoding="UTF-8" standalone="no"?>
<!DOCTYPE svg PUBLIC "-//W3C//DTD SVG 1.1//EN"
 "http://www.w3.org/Graphics/SVG/1.1/DTD/svg11.dtd">
<!-- Generated by graphviz version 14.1.5 (20260411.2331)
 -->
<!-- Pages: 1 -->
<svg width="89pt" height="260pt"
 viewBox="0.00 0.00 89.00 260.00" xmlns="http://www.w3.org/2000/svg" xmlns:xlink="http://www.w3.org/1999/xlink">
<g id="graph0" class="graph" transform="scale(1 1) rotate(0) translate(4 256)">
<polygon fill="white" stroke="none" points="-4,4 -4,-256 85,-256 85,4 -4,4"/>
<!-- a -->
<g id="node1" class="node">
<title>a</title>
<ellipse fill="none" stroke="black" cx="54" cy="-234" rx="27" ry="18"/>
<text xml:space="preserve" text-anchor="middle" x="54" y="-228.95" font-family="Times,serif" font-size="14.00">a</text>
</g>
<!-- b -->
<g id="node2" class="node">
<title>b</title>
<ellipse fill="none" stroke="black" cx="27" cy="-162" rx="27" ry="18"/>
<text xml:space="preserve" text-anchor="middle" x="27" y="-156.95" font-family="Times,serif" font-size="14.00">b</text>
</g>
<!-- a&#45;&gt;b -->
<g id="edge1" class="edge">
<title>a&#45;&gt;b</title>
<path fill="none" stroke="black" d="M47.46,-216.05C44.48,-208.32 40.87,-198.96 37.52,-190.27"/>
<polygon fill="black" stroke="black" points="40.88,-189.27 34.02,-181.2 34.35,-191.79 40.88,-189.27"/>
</g>
<!-- c -->
<g id="node3" class="node">
<title>c</title>
<ellipse fill="none" stroke="black" cx="27" cy="-90" rx="27" ry="18"/>
<text xml:space="preserve" text-anchor="middle" x="27" y="-84.95" font-family="Times,serif" font-size="14.00">c</text>
</g>
<!-- b&#45;&gt;c -->
<g id="edge2" class="edge">
<title>b&#45;&gt;c</title>
<path fill="none" stroke="black" d="M27,-143.7C27,-136.41 27,-127.73 27,-119.54"/>
<polygon fill="black" stroke="black" points="30.5,-119.62 27,-109.62 23.5,-119.62 30.5,-119.62"/>
</g>
<!-- d -->
<g id="node4" class="node">
<title>d</title>
<ellipse fill="none" stroke="black" cx="54" cy="-18" rx="27" ry="18"/>
<text xml:space="preserve" text-anchor="middle" x="54" y="-12.95" font-family="Times,serif" font-size="14.00">d</text>
</g>
<!-- c&#45;&gt;d -->
<g id="edge3" class="edge">
<title>c&#45;&gt;d</title>
<path fill="none" stroke="black" d="M33.54,-72.05C36.52,-64.32 40.13,-54.96 43.48,-46.27"/>
<polygon fill="black" stroke="black" points="46.65,-47.79 46.98,-37.2 40.12,-45.27 46.65,-47.79"/>
</g>
<!-- d&#45;&gt;a -->
<g id="edge4" class="edge">
<title>d&#45;&gt;a</title>
<path fill="none" stroke="black" d="M57.65,-36.09C59.68,-46.43 61.98,-59.91 63,-72 67.03,-119.83 67.03,-132.17 63,-180 62.32,-188.03 61.08,-196.67 59.73,-204.6"/>
<polygon fill="black" stroke="black" points="56.29,-203.95 57.93,-214.42 63.17,-205.21 56.29,-203.95"/>
</g>
</g>
</svg>
