<?xml version="1.0" encoding="UTF-8" standalone="no"?>
<!DOCTYPE svg PUBLIC "-//W3C//DTD SVG 1.1//EN"
 "http://www.w3.org/Graphics/SVG/1.1/DTD/svg11.dtd">
<!-- Generated by graphviz version 14.1.5 (20260411.2331)
 -->
<!-- Title: ER Pages: 1 -->
<svg width="365pt" height="344pt"
 viewBox="0.00 0.00 365.00 344.00" xmlns="http://www.w3.org/2000/svg" xmlns:xlink="http://www.w3.org/1999/xlink">
<g id="graph0" class="graph" transform="scale(1 1) rotate(0) translate(4 339.6)">
<title>ER</title>
<polygon fill="white" stroke="none" points="-4,4 -4,-339.6 360.75,-339.6 360.75,4 -4,4"/>
<!-- course -->
<g id="node1" class="node">
<title>course</title>
<polygon fill="none" stroke="black" points="126.93,-196.69 72.93,-196.69 72.93,-160.69 126.93,-160.69 126.93,-196.69"/>
<text xml:space="preserve" text-anchor="middle" x="99.93" y="-173.64" font-family="Times,serif" font-size="14.00">course</text>
</g>
<!-- C&#45;I -->
<g id="node10" class="node">
<title>C&#45;I</title>
<polygon fill="lightgrey" stroke="lightgrey" points="145.66,-267.85 112.85,-249.85 145.66,-231.85 178.47,-249.85 145.66,-267.85"/>
<text xml:space="preserve" text-anchor="middle" x="145.66" y="-244.8" font-family="Times,serif" font-size="14.00">C&#45;I</text>
</g>
<!-- course&#45;&#45;C&#45;I -->
<g id="edge3" class="edge">
<title>course&#45;&#45;C&#45;I</title>
<path fill="none" stroke="black" d="M111.7,-197.01C119.64,-209.37 129.94,-225.38 137.1,-236.53"/>
</g>
<!-- institute -->
<g id="node2" class="node">
<title>institute</title>
<polygon fill="none" stroke="black" points="257.79,-267.33 198.29,-267.33 198.29,-231.33 257.79,-231.33 257.79,-267.33"/>
<text xml:space="preserve" text-anchor="middle" x="228.04" y="-244.28" font-family="Times,serif" font-size="14.00">institute</text>
</g>
<!-- name1 -->
<g id="node5" class="node">
<title>name1</title>
<ellipse fill="none" stroke="black" cx="267.27" cy="-317.6" rx="36" ry="18"/>
<text xml:space="preserve" text-anchor="middle" x="267.27" y="-312.55" font-family="Times,serif" font-size="14.00">name1</text>
</g>
<!-- institute&#45;&#45;name1 -->
<g id="edge5" class="edge">
<title>institute&#45;&#45;name1</title>
<path fill="none" stroke="black" d="M238.56,-267.63C244.37,-277.74 251.54,-290.23 257.27,-300.2"/>
</g>
<!-- S&#45;I -->
<g id="node12" class="node">
<title>S&#45;I</title>
<polygon fill="lightgrey" stroke="lightgrey" points="264.41,-193.69 233.04,-175.69 264.41,-157.69 295.77,-175.69 264.41,-193.69"/>
<text xml:space="preserve" text-anchor="middle" x="264.41" y="-170.64" font-family="Times,serif" font-size="14.00">S&#45;I</text>
</g>
<!-- institute&#45;&#45;S&#45;I -->
<g id="edge6" class="edge">
<title>institute&#45;&#45;S&#45;I</title>
<path fill="none" stroke="black" d="M237.03,-231.13C243.34,-218.35 251.66,-201.51 257.46,-189.76"/>
</g>
<!-- student -->
<g id="node3" class="node">
<title>student</title>
<polygon fill="none" stroke="black" points="264.67,-113.41 209.67,-113.41 209.67,-77.41 264.67,-77.41 264.67,-113.41"/>
<text xml:space="preserve" text-anchor="middle" x="237.17" y="-90.36" font-family="Times,serif" font-size="14.00">student</text>
</g>
<!-- name2 -->
<g id="node6" class="node">
<title>name2</title>
<ellipse fill="none" stroke="black" cx="320.76" cy="-93.31" rx="36" ry="18"/>
<text xml:space="preserve" text-anchor="middle" x="320.76" y="-88.26" font-family="Times,serif" font-size="14.00">name2</text>
</g>
<!-- student&#45;&#45;name2 -->
<g id="edge9" class="edge">
<title>student&#45;&#45;name2</title>
<path fill="none" stroke="black" d="M265.01,-94.71C271.27,-94.56 278.02,-94.39 284.57,-94.22"/>
</g>
<!-- grade -->
<g id="node8" class="node">
<title>grade</title>
<ellipse fill="none" stroke="black" cx="280.86" cy="-27.59" rx="31.39" ry="18"/>
<text xml:space="preserve" text-anchor="middle" x="280.86" y="-22.54" font-family="Times,serif" font-size="14.00">grade</text>
</g>
<!-- student&#45;&#45;grade -->
<g id="edge8" class="edge">
<title>student&#45;&#45;grade</title>
<path fill="none" stroke="black" d="M248.88,-77.24C255.35,-67.19 263.34,-54.78 269.72,-44.88"/>
</g>
<!-- number -->
<g id="node9" class="node">
<title>number</title>
<ellipse fill="none" stroke="black" cx="205.28" cy="-18" rx="39.58" ry="18"/>
<text xml:space="preserve" text-anchor="middle" x="205.28" y="-12.95" font-family="Times,serif" font-size="14.00">number</text>
</g>
<!-- student&#45;&#45;number -->
<g id="edge10" class="edge">
<title>student&#45;&#45;number</title>
<path fill="none" stroke="black" d="M229.62,-77.07C224.49,-64.64 217.76,-48.29 212.67,-35.95"/>
</g>
<!-- S&#45;C -->
<g id="node11" class="node">
<title>S&#45;C</title>
<polygon fill="lightgrey" stroke="lightgrey" points="154.78,-133.32 119.07,-115.32 154.78,-97.32 190.48,-115.32 154.78,-133.32"/>
<text xml:space="preserve" text-anchor="middle" x="154.78" y="-110.27" font-family="Times,serif" font-size="14.00">S&#45;C</text>
</g>
<!-- student&#45;&#45;S&#45;C -->
<g id="edge11" class="edge">
<title>student&#45;&#45;S&#45;C</title>
<path fill="none" stroke="black" d="M209.28,-102.15C199.66,-104.48 188.96,-107.06 179.6,-109.32"/>
</g>
<!-- name0 -->
<g id="node4" class="node">
<title>name0</title>
<ellipse fill="none" stroke="black" cx="36" cy="-227.96" rx="36" ry="18"/>
<text xml:space="preserve" text-anchor="middle" x="36" y="-222.91" font-family="Times,serif" font-size="14.00">name0</text>
</g>
<!-- name0&#45;&#45;course -->
<g id="edge1" class="edge">
<title>name0&#45;&#45;course</title>
<path fill="none" stroke="black" d="M55.87,-212.64C62.33,-207.67 69.55,-202.1 76.25,-196.94"/>
</g>
<!-- code -->
<g id="node7" class="node">
<title>code</title>
<ellipse fill="none" stroke="black" cx="29.98" cy="-136.09" rx="28.32" ry="18"/>
<text xml:space="preserve" text-anchor="middle" x="29.98" y="-131.04" font-family="Times,serif" font-size="14.00">code</text>
</g>
<!-- code&#45;&#45;course -->
<g id="edge2" class="edge">
<title>code&#45;&#45;course</title>
<path fill="none" stroke="black" d="M50.58,-148.64C57.44,-152.81 65.18,-157.53 72.46,-161.96"/>
</g>
<!-- C&#45;I&#45;&#45;institute -->
<g id="edge4" class="edge">
<title>C&#45;I&#45;&#45;institute</title>
<path fill="none" stroke="black" d="M178.69,-249.64C185.05,-249.6 191.68,-249.56 197.93,-249.52"/>
</g>
<!-- S&#45;C&#45;&#45;course -->
<g id="edge12" class="edge">
<title>S&#45;C&#45;&#45;course</title>
<path fill="none" stroke="black" d="M143.68,-128.14C135.66,-137.4 124.73,-150.04 115.79,-160.36"/>
</g>
<!-- S&#45;I&#45;&#45;student -->
<g id="edge7" class="edge">
<title>S&#45;I&#45;&#45;student</title>
<path fill="none" stroke="black" d="M259.16,-160.21C254.64,-146.91 248.13,-127.7 243.36,-113.65"/>
</g>
</g>
</svg>
