<?xml version="1.0" encoding="UTF-8" standalone="no"?>
<!DOCTYPE svg PUBLIC "-//W3C//DTD SVG 1.1//EN"
 "http://www.w3.org/Graphics/SVG/1.1/DTD/svg11.dtd">
<!-- Generated by graphviz version 14.1.5 (20260411.2331)
 -->
<!-- Title: finite_state_machine Pages: 1 -->
<svg width="573pt" height="256pt"
 viewBox="0.00 0.00 573.00 256.00" xmlns="http://www.w3.org/2000/svg" xmlns:xlink="http://www.w3.org/1999/xlink">
<g id="graph0" class="graph" transform="scale(1 1) rotate(0) translate(4 252)">
<title>finite_state_machine</title>
<polygon fill="white" stroke="none" points="-4,4 -4,-252 568.75,-252 568.75,4 -4,4"/>
<!-- 0 -->
<g id="node1" class="node">
<title>0</title>
<ellipse fill="none" stroke="black" cx="22" cy="-77" rx="18" ry="18"/>
<ellipse fill="none" stroke="black" cx="22" cy="-77" rx="22" ry="22"/>
<text xml:space="preserve" text-anchor="middle" x="22" y="-71.95" font-family="Times,serif" font-size="14.00">0</text>
</g>
<!-- 2 -->
<g id="node5" class="node">
<title>2</title>
<ellipse fill="none" stroke="black" cx="131" cy="-106" rx="18" ry="18"/>
<text xml:space="preserve" text-anchor="middle" x="131" y="-100.95" font-family="Times,serif" font-size="14.00">2</text>
</g>
<!-- 0&#45;&gt;2 -->
<g id="edge1" class="edge">
<title>0&#45;&gt;2</title>
<path fill="none" stroke="black" d="M43.63,-82.59C60.35,-87.12 84.06,-93.55 102.41,-98.52"/>
<polygon fill="black" stroke="black" points="101.27,-101.84 111.84,-101.08 103.1,-95.08 101.27,-101.84"/>
<text xml:space="preserve" text-anchor="middle" x="78.5" y="-98.99" font-family="Times,serif" font-size="14.00">SS(B)</text>
</g>
<!-- 1 -->
<g id="node6" class="node">
<title>1</title>
<ellipse fill="none" stroke="black" cx="131" cy="-50" rx="18" ry="18"/>
<text xml:space="preserve" text-anchor="middle" x="131" y="-44.95" font-family="Times,serif" font-size="14.00">1</text>
</g>
<!-- 0&#45;&gt;1 -->
<g id="edge2" class="edge">
<title>0&#45;&gt;1</title>
<path fill="none" stroke="black" d="M42.56,-68.29C48.69,-65.82 55.54,-63.31 62,-61.5 74.71,-57.94 89.09,-55.32 101.33,-53.48"/>
<polygon fill="black" stroke="black" points="101.81,-56.95 111.23,-52.11 100.85,-50.01 101.81,-56.95"/>
<text xml:space="preserve" text-anchor="middle" x="78.5" y="-64.7" font-family="Times,serif" font-size="14.00">SS(S)</text>
</g>
<!-- 3 -->
<g id="node2" class="node">
<title>3</title>
<ellipse fill="none" stroke="black" cx="249.75" cy="-22" rx="18" ry="18"/>
<ellipse fill="none" stroke="black" cx="249.75" cy="-22" rx="22" ry="22"/>
<text xml:space="preserve" text-anchor="middle" x="249.75" y="-16.95" font-family="Times,serif" font-size="14.00">3</text>
</g>
<!-- 4 -->
<g id="node3" class="node">
<title>4</title>
<ellipse fill="none" stroke="black" cx="249.75" cy="-226" rx="18" ry="18"/>
<ellipse fill="none" stroke="black" cx="249.75" cy="-226" rx="22" ry="22"/>
<text xml:space="preserve" text-anchor="middle" x="249.75" y="-220.95" font-family="Times,serif" font-size="14.00">4</text>
</g>
<!-- 8 -->
<g id="node4" class="node">
<title>8</title>
<ellipse fill="none" stroke="black" cx="542.75" cy="-114" rx="18" ry="18"/>
<ellipse fill="none" stroke="black" cx="542.75" cy="-114" rx="22" ry="22"/>
<text xml:space="preserve" text-anchor="middle" x="542.75" y="-108.95" font-family="Times,serif" font-size="14.00">8</text>
</g>
<!-- 6 -->
<g id="node7" class="node">
<title>6</title>
<ellipse fill="none" stroke="black" cx="249.75" cy="-133" rx="18" ry="18"/>
<text xml:space="preserve" text-anchor="middle" x="249.75" y="-127.95" font-family="Times,serif" font-size="14.00">6</text>
</g>
<!-- 8&#45;&gt;6 -->
<g id="edge13" class="edge">
<title>8&#45;&gt;6</title>
<path fill="none" stroke="black" d="M521.21,-119.76C515.28,-121.29 508.79,-122.83 502.75,-124 427.07,-138.64 407.21,-146.34 330.25,-142 313.29,-141.04 294.39,-138.95 279.27,-137.02"/>
<polygon fill="black" stroke="black" points="279.95,-133.58 269.57,-135.73 279.02,-140.51 279.95,-133.58"/>
<text xml:space="preserve" text-anchor="middle" x="395.88" y="-146.1" font-family="Times,serif" font-size="14.00">S(b)</text>
</g>
<!-- 5 -->
<g id="node8" class="node">
<title>5</title>
<ellipse fill="none" stroke="black" cx="348.25" cy="-80" rx="18" ry="18"/>
<text xml:space="preserve" text-anchor="middle" x="348.25" y="-74.95" font-family="Times,serif" font-size="14.00">5</text>
</g>
<!-- 8&#45;&gt;5 -->
<g id="edge14" class="edge">
<title>8&#45;&gt;5</title>
<path fill="none" stroke="black" d="M520.32,-112.66C489.75,-110.42 432.03,-104.9 384.25,-93 381.6,-92.34 378.87,-91.54 376.16,-90.67"/>
<polygon fill="black" stroke="black" points="377.41,-87.41 366.82,-87.36 375.07,-94 377.41,-87.41"/>
<text xml:space="preserve" text-anchor="middle" x="443.5" y="-109.84" font-family="Times,serif" font-size="14.00">S(a)</text>
</g>
<!-- 2&#45;&gt;4 -->
<g id="edge6" class="edge">
<title>2&#45;&gt;4</title>
<path fill="none" stroke="black" d="M143.86,-119.13C150.58,-126.51 159.18,-135.84 167,-144 186.31,-164.15 208.71,-186.55 225.18,-202.85"/>
<polygon fill="black" stroke="black" points="222.55,-205.17 232.12,-209.7 227.46,-200.18 222.55,-205.17"/>
<text xml:space="preserve" text-anchor="middle" x="188.38" y="-190.01" font-family="Times,serif" font-size="14.00">S(A)</text>
</g>
<!-- 2&#45;&gt;6 -->
<g id="edge4" class="edge">
<title>2&#45;&gt;6</title>
<path fill="none" stroke="black" d="M148.73,-109.87C167.54,-114.22 198.4,-121.35 220.87,-126.55"/>
<polygon fill="black" stroke="black" points="220.05,-129.95 230.58,-128.8 221.62,-123.13 220.05,-129.95"/>
<text xml:space="preserve" text-anchor="middle" x="188.38" y="-126.7" font-family="Times,serif" font-size="14.00">SS(b)</text>
</g>
<!-- 2&#45;&gt;5 -->
<g id="edge5" class="edge">
<title>2&#45;&gt;5</title>
<path fill="none" stroke="black" d="M148.88,-102.61C167.96,-98.89 199.97,-92.99 227.75,-89.5 258.66,-85.62 294.29,-83.03 318.54,-81.54"/>
<polygon fill="black" stroke="black" points="318.49,-85.05 328.27,-80.98 318.09,-78.07 318.49,-85.05"/>
<text xml:space="preserve" text-anchor="middle" x="249.75" y="-92.7" font-family="Times,serif" font-size="14.00">SS(a)</text>
</g>
<!-- 1&#45;&gt;3 -->
<g id="edge3" class="edge">
<title>1&#45;&gt;3</title>
<path fill="none" stroke="black" d="M148.73,-45.99C166.47,-41.73 194.93,-34.91 216.96,-29.62"/>
<polygon fill="black" stroke="black" points="217.74,-33.04 226.65,-27.3 216.1,-26.23 217.74,-33.04"/>
<text xml:space="preserve" text-anchor="middle" x="188.38" y="-44.14" font-family="Times,serif" font-size="14.00">S($end)</text>
</g>
<!-- 6&#45;&gt;6 -->
<g id="edge9" class="edge">
<title>6&#45;&gt;6</title>
<path fill="none" stroke="black" d="M240.9,-148.92C238.59,-159.15 241.54,-169 249.75,-169 254.75,-169 257.8,-165.34 258.9,-160.17"/>
<polygon fill="black" stroke="black" points="262.4,-160.33 258.64,-150.43 255.41,-160.52 262.4,-160.33"/>
<text xml:space="preserve" text-anchor="middle" x="249.75" y="-172.2" font-family="Times,serif" font-size="14.00">S(b)</text>
</g>
<!-- 6&#45;&gt;5 -->
<g id="edge10" class="edge">
<title>6&#45;&gt;5</title>
<path fill="none" stroke="black" d="M265.83,-124.72C280.82,-116.48 304.11,-103.7 321.94,-93.9"/>
<polygon fill="black" stroke="black" points="323.55,-97.01 330.63,-89.13 320.18,-90.87 323.55,-97.01"/>
<text xml:space="preserve" text-anchor="middle" x="301" y="-114.45" font-family="Times,serif" font-size="14.00">S(a)</text>
</g>
<!-- 5&#45;&gt;5 -->
<g id="edge8" class="edge">
<title>5&#45;&gt;5</title>
<path fill="none" stroke="black" d="M340.02,-96.29C338.03,-106.39 340.77,-116 348.25,-116 352.69,-116 355.46,-112.61 356.56,-107.74"/>
<polygon fill="black" stroke="black" points="360.06,-107.78 356.49,-97.8 353.06,-107.83 360.06,-107.78"/>
<text xml:space="preserve" text-anchor="middle" x="348.25" y="-119.2" font-family="Times,serif" font-size="14.00">S(a)</text>
</g>
<!-- 7 -->
<g id="node9" class="node">
<title>7</title>
<ellipse fill="none" stroke="black" cx="443.5" cy="-60" rx="18" ry="18"/>
<text xml:space="preserve" text-anchor="middle" x="443.5" y="-54.95" font-family="Times,serif" font-size="14.00">7</text>
</g>
<!-- 5&#45;&gt;7 -->
<g id="edge7" class="edge">
<title>5&#45;&gt;7</title>
<path fill="none" stroke="black" d="M366.35,-76.33C379.76,-73.46 398.7,-69.39 414.34,-66.04"/>
<polygon fill="black" stroke="black" points="414.98,-69.48 424.03,-63.96 413.51,-62.64 414.98,-69.48"/>
<text xml:space="preserve" text-anchor="middle" x="395.88" y="-75.58" font-family="Times,serif" font-size="14.00">S(b)</text>
</g>
<!-- 7&#45;&gt;8 -->
<g id="edge11" class="edge">
<title>7&#45;&gt;8</title>
<path fill="none" stroke="black" d="M461.14,-65.31C473.12,-69.46 489.43,-75.81 502.75,-83.5 507.52,-86.26 512.35,-89.54 516.91,-92.93"/>
<polygon fill="black" stroke="black" points="514.55,-95.53 524.59,-98.93 518.86,-90.01 514.55,-95.53"/>
<text xml:space="preserve" text-anchor="middle" x="491.12" y="-86.7" font-family="Times,serif" font-size="14.00">S(b)</text>
</g>
<!-- 7&#45;&gt;5 -->
<g id="edge12" class="edge">
<title>7&#45;&gt;5</title>
<path fill="none" stroke="black" d="M427.26,-52C415.28,-46.82 398.31,-41.98 384.25,-47.5 378.27,-49.85 372.7,-53.75 367.84,-58.06"/>
<polygon fill="black" stroke="black" points="365.59,-55.36 361.01,-64.91 370.55,-60.31 365.59,-55.36"/>
<text xml:space="preserve" text-anchor="middle" x="395.88" y="-50.7" font-family="Times,serif" font-size="14.00">S(a)</text>
</g>
</g>
</svg>
