<?xml version="1.0" encoding="UTF-8" standalone="no"?>
<!DOCTYPE svg PUBLIC "-//W3C//DTD SVG 1.1//EN"
 "http://www.w3.org/Graphics/SVG/1.1/DTD/svg11.dtd">
<!-- Generated by graphviz version 14.1.5 (20260411.2331)
 -->
<!-- Title: G Pages: 1 -->
<svg width="123pt" height="210pt"
 viewBox="0.00 0.00 123.00 210.00" xmlns="http://www.w3.org/2000/svg" xmlns:xlink="http://www.w3.org/1999/xlink">
<g id="graph0" class="graph" transform="scale(1 1) rotate(0) translate(4 205.98)">
<title>G</title>
<polygon fill="white" stroke="none" points="-4,4 -4,-205.98 118.99,-205.98 118.99,4 -4,4"/>
<!-- Node A -->
<g id="node1" class="node">
<title>Node A</title>
<ellipse fill="none" stroke="black" cx="57.49" cy="-172.99" rx="32" ry="28.99"/>
<text xml:space="preserve" text-anchor="middle" x="57.49" y="-176.19" font-family="Times,serif" font-size="14.00">First</text>
<text xml:space="preserve" text-anchor="middle" x="57.49" y="-159.69" font-family="Times,serif" font-size="14.00">Node</text>
</g>
<!-- Node B -->
<g id="node2" class="node">
<title>Node B</title>
<ellipse fill="none" stroke="black" cx="57.49" cy="-90" rx="39.58" ry="18"/>
<text xml:space="preserve" text-anchor="middle" x="57.49" y="-84.95" font-family="Times,serif" font-size="14.00">Node B</text>
</g>
<!-- Node A&#45;&gt;Node B -->
<g id="edge1" class="edge">
<title>Node A&#45;&gt;Node B</title>
<path fill="none" stroke="black" d="M57.49,-143.66C57.49,-135.79 57.49,-127.24 57.49,-119.36"/>
<polygon fill="black" stroke="black" points="60.99,-119.61 57.49,-109.61 53.99,-119.61 60.99,-119.61"/>
</g>
<!-- Node C (special) -->
<g id="node3" class="node">
<title>Node C (special)</title>
<ellipse fill="none" stroke="black" cx="57.49" cy="-18" rx="57.49" ry="18"/>
<text xml:space="preserve" text-anchor="middle" x="57.49" y="-12.95" font-family="Times,serif" font-size="14.00">Last &quot;Node&quot;</text>
</g>
<!-- Node B&#45;&gt;Node C (special) -->
<g id="edge2" class="edge">
<title>Node B&#45;&gt;Node C (special)</title>
<path fill="none" stroke="black" d="M57.49,-71.7C57.49,-64.41 57.49,-55.73 57.49,-47.54"/>
<polygon fill="black" stroke="black" points="60.99,-47.62 57.49,-37.62 53.99,-47.62 60.99,-47.62"/>
</g>
</g>
</svg>
