<?xml version="1.0" encoding="UTF-8" standalone="no"?>
<!DOCTYPE svg PUBLIC "-//W3C//DTD SVG 1.1//EN"
 "http://www.w3.org/Graphics/SVG/1.1/DTD/svg11.dtd">
<!-- Generated by graphviz version 14.1.5 (20260411.2331)
 -->
<!-- Title: G Pages: 1 -->
<svg width="70pt" height="817pt"
 viewBox="0.00 0.00 70.00 817.00" xmlns="http://www.w3.org/2000/svg" xmlns:xlink="http://www.w3.org/1999/xlink">
<g id="graph0" class="graph" transform="scale(1 1) rotate(0) translate(4 812.6)">
<title>G</title>
<polygon fill="white" stroke="none" points="-4,4 -4,-812.6 66.1,-812.6 66.1,4 -4,4"/>
<!-- a -->
<g id="node1" class="node">
<title>a</title>
<polygon fill="none" stroke="black" points="58.05,-808.6 4.05,-808.6 4.05,-772.6 58.05,-772.6 58.05,-808.6"/>
<text xml:space="preserve" text-anchor="middle" x="31.05" y="-785.55" font-family="Times,serif" font-size="14.00">a</text>
</g>
<!-- b -->
<g id="node2" class="node">
<title>b</title>
<ellipse fill="none" stroke="black" cx="31.05" cy="-718.6" rx="27" ry="18"/>
<text xml:space="preserve" text-anchor="middle" x="31.05" y="-713.55" font-family="Times,serif" font-size="14.00">b</text>
</g>
<!-- a&#45;&gt;b -->
<g id="edge1" class="edge">
<title>a&#45;&gt;b</title>
<path fill="none" stroke="black" d="M31.05,-772.3C31.05,-765.01 31.05,-756.33 31.05,-748.14"/>
<polygon fill="black" stroke="black" points="34.55,-748.22 31.05,-738.22 27.55,-748.22 34.55,-748.22"/>
</g>
<!-- c -->
<g id="node3" class="node">
<title>c</title>
<ellipse fill="none" stroke="black" cx="31.05" cy="-646.6" rx="18" ry="18"/>
<text xml:space="preserve" text-anchor="middle" x="31.05" y="-641.55" font-family="Times,serif" font-size="14.00">c</text>
</g>
<!-- b&#45;&gt;c -->
<g id="edge2" class="edge">
<title>b&#45;&gt;c</title>
<path fill="none" stroke="black" d="M31.05,-700.3C31.05,-693.01 31.05,-684.33 31.05,-676.14"/>
<polygon fill="black" stroke="black" points="34.55,-676.22 31.05,-666.22 27.55,-676.22 34.55,-676.22"/>
</g>
<!-- d -->
<g id="node4" class="node">
<title>d</title>
<polygon fill="none" stroke="black" points="31.05,-592.6 4.05,-574.6 31.05,-556.6 58.05,-574.6 31.05,-592.6"/>
<text xml:space="preserve" text-anchor="middle" x="31.05" y="-569.55" font-family="Times,serif" font-size="14.00">d</text>
</g>
<!-- c&#45;&gt;d -->
<g id="edge3" class="edge">
<title>c&#45;&gt;d</title>
<path fill="none" stroke="black" d="M31.05,-628.3C31.05,-621.12 31.05,-612.59 31.05,-604.5"/>
<polygon fill="black" stroke="black" points="34.55,-604.7 31.05,-594.7 27.55,-604.7 34.55,-604.7"/>
</g>
<!-- e -->
<g id="node5" class="node">
<title>e</title>
<text xml:space="preserve" text-anchor="middle" x="31.05" y="-497.55" font-family="Times,serif" font-size="14.00">e</text>
</g>
<!-- d&#45;&gt;e -->
<g id="edge4" class="edge">
<title>d&#45;&gt;e</title>
<path fill="none" stroke="black" d="M31.05,-556.3C31.05,-548.81 31.05,-539.86 31.05,-531.48"/>
<polygon fill="black" stroke="black" points="34.55,-531.74 31.05,-521.74 27.55,-531.74 34.55,-531.74"/>
</g>
<!-- f -->
<g id="node6" class="node">
<title>f</title>
<ellipse fill="black" stroke="black" cx="31.05" cy="-446.8" rx="1.8" ry="1.8"/>
</g>
<!-- e&#45;&gt;f -->
<g id="edge5" class="edge">
<title>e&#45;&gt;f</title>
<path fill="none" stroke="black" d="M31.05,-484.87C31.05,-476.92 31.05,-467.58 31.05,-460.26"/>
<polygon fill="black" stroke="black" points="34.55,-460.5 31.05,-450.5 27.55,-460.5 34.55,-460.5"/>
</g>
<!-- g -->
<g id="node7" class="node">
<title>g</title>
<polygon fill="none" stroke="black" points="31.05,-409 0,-372.25 62.1,-372.25 31.05,-409"/>
<text xml:space="preserve" text-anchor="middle" x="31.05" y="-379.45" font-family="Times,serif" font-size="14.00">g</text>
</g>
<!-- f&#45;&gt;g -->
<g id="edge6" class="edge">
<title>f&#45;&gt;g</title>
<path fill="none" stroke="black" d="M31.05,-444.75C31.05,-441.6 31.05,-431.72 31.05,-420.91"/>
<polygon fill="black" stroke="black" points="34.55,-421.06 31.05,-411.06 27.55,-421.06 34.55,-421.06"/>
</g>
<!-- h -->
<g id="node8" class="node">
<title>h</title>
<polygon fill="none" stroke="black" points="58.05,-311.56 31.05,-324 4.05,-311.56 14.36,-291.44 47.74,-291.44 58.05,-311.56"/>
<text xml:space="preserve" text-anchor="middle" x="31.05" y="-300.95" font-family="Times,serif" font-size="14.00">h</text>
</g>
<!-- g&#45;&gt;h -->
<g id="edge7" class="edge">
<title>g&#45;&gt;h</title>
<path fill="none" stroke="black" d="M31.05,-371.88C31.05,-362.32 31.05,-348.34 31.05,-335.8"/>
<polygon fill="black" stroke="black" points="34.55,-335.93 31.05,-325.93 27.55,-335.93 34.55,-335.93"/>
</g>
<!-- i -->
<g id="node9" class="node">
<title>i</title>
<polygon fill="none" stroke="black" points="58.05,-234 44.55,-252 17.55,-252 4.05,-234 17.55,-216 44.55,-216 58.05,-234"/>
<text xml:space="preserve" text-anchor="middle" x="31.05" y="-228.95" font-family="Times,serif" font-size="14.00">i</text>
</g>
<!-- h&#45;&gt;i -->
<g id="edge8" class="edge">
<title>h&#45;&gt;i</title>
<path fill="none" stroke="black" d="M31.05,-291.17C31.05,-283.33 31.05,-273.21 31.05,-263.73"/>
<polygon fill="black" stroke="black" points="34.55,-263.79 31.05,-253.79 27.55,-263.79 34.55,-263.79"/>
</g>
<!-- j -->
<g id="node10" class="node">
<title>j</title>
<polygon fill="none" stroke="black" points="58.05,-180 4.05,-180 4.05,-144 58.05,-144 58.05,-180"/>
<text xml:space="preserve" text-anchor="middle" x="31.05" y="-156.95" font-family="Times,serif" font-size="14.00">j</text>
</g>
<!-- i&#45;&gt;j -->
<g id="edge9" class="edge">
<title>i&#45;&gt;j</title>
<path fill="none" stroke="black" d="M31.05,-215.7C31.05,-208.41 31.05,-199.73 31.05,-191.54"/>
<polygon fill="black" stroke="black" points="34.55,-191.62 31.05,-181.62 27.55,-191.62 34.55,-191.62"/>
</g>
<!-- k -->
<g id="node11" class="node">
<title>k</title>
<polygon fill="none" stroke="black" points="58.05,-108 4.05,-108 4.05,-72 58.05,-72 58.05,-108"/>
<text xml:space="preserve" text-anchor="middle" x="31.05" y="-84.95" font-family="Times,serif" font-size="14.00">k</text>
</g>
<!-- j&#45;&gt;k -->
<g id="edge10" class="edge">
<title>j&#45;&gt;k</title>
<path fill="none" stroke="black" d="M31.05,-143.7C31.05,-136.41 31.05,-127.73 31.05,-119.54"/>
<polygon fill="black" stroke="black" points="34.55,-119.62 31.05,-109.62 27.55,-119.62 34.55,-119.62"/>
</g>
<!-- l -->
<g id="node12" class="node">
<title>l</title>
<text xml:space="preserve" text-anchor="middle" x="31.05" y="-12.95" font-family="Times,serif" font-size="14.00">l</text>
</g>
<!-- k&#45;&gt;l -->
<g id="edge11" class="edge">
<title>k&#45;&gt;l</title>
<path fill="none" stroke="black" d="M31.05,-71.7C31.05,-64.21 31.05,-55.26 31.05,-46.88"/>
<polygon fill="black" stroke="black" points="34.55,-47.14 31.05,-37.14 27.55,-47.14 34.55,-47.14"/>
</g>
</g>
</svg>
