<?xml version="1.0" encoding="UTF-8" standalone="no"?>
<!DOCTYPE svg PUBLIC "-//W3C//DTD SVG 1.1//EN"
 "http://www.w3.org/Graphics/SVG/1.1/DTD/svg11.dtd">
<!-- Generated by graphviz version 14.1.5 (20260411.2331)
 -->
<!-- Pages: 1 -->
<svg width="189pt" height="170pt"
 viewBox="0.00 0.00 189.00 170.00" xmlns="http://www.w3.org/2000/svg" xmlns:xlink="http://www.w3.org/1999/xlink">
<g id="graph0" class="graph" transform="scale(1 1) rotate(0) translate(4 165.65)">
<polygon fill="white" stroke="none" points="-4,4 -4,-165.65 185.27,-165.65 185.27,4 -4,4"/>
<!-- a -->
<g id="node1" class="node">
<title>a</title>
<ellipse fill="none" stroke="black" cx="91.53" cy="-46.77" rx="27" ry="18"/>
<text xml:space="preserve" text-anchor="middle" x="91.53" y="-41.72" font-family="Times,serif" font-size="14.00">a</text>
</g>
<!-- b -->
<g id="node2" class="node">
<title>b</title>
<ellipse fill="none" stroke="black" cx="134.63" cy="-18" rx="27" ry="18"/>
<text xml:space="preserve" text-anchor="middle" x="134.63" y="-12.95" font-family="Times,serif" font-size="14.00">b</text>
</g>
<!-- a&#45;&#45;b -->
<g id="edge1" class="edge">
<title>a&#45;&#45;b</title>
<path fill="none" stroke="black" d="M110.81,-33.9C112.24,-32.94 113.69,-31.97 115.13,-31.02"/>
</g>
<!-- c -->
<g id="node3" class="node">
<title>c</title>
<ellipse fill="none" stroke="black" cx="89.79" cy="-100.65" rx="27" ry="18"/>
<text xml:space="preserve" text-anchor="middle" x="89.79" y="-95.6" font-family="Times,serif" font-size="14.00">c</text>
</g>
<!-- a&#45;&#45;c -->
<g id="edge3" class="edge">
<title>a&#45;&#45;c</title>
<path fill="none" stroke="black" d="M90.94,-65.01C90.76,-70.63 90.56,-76.81 90.38,-82.43"/>
</g>
<!-- b&#45;&#45;c -->
<g id="edge2" class="edge">
<title>b&#45;&#45;c</title>
<path fill="none" stroke="black" d="M125.34,-35.13C117.64,-49.31 106.76,-69.37 99.07,-83.55"/>
</g>
<!-- d -->
<g id="node4" class="node">
<title>d</title>
<ellipse fill="none" stroke="black" cx="27" cy="-143.65" rx="27" ry="18"/>
<text xml:space="preserve" text-anchor="middle" x="27" y="-138.6" font-family="Times,serif" font-size="14.00">d</text>
</g>
<!-- d&#45;&#45;c -->
<g id="edge4" class="edge">
<title>d&#45;&#45;c</title>
<path fill="none" stroke="black" d="M46.18,-130.52C53.97,-125.18 62.95,-119.03 70.73,-113.71"/>
</g>
<!-- e -->
<g id="node5" class="node">
<title>e</title>
<ellipse fill="none" stroke="black" cx="154.27" cy="-110.62" rx="27" ry="18"/>
<text xml:space="preserve" text-anchor="middle" x="154.27" y="-105.57" font-family="Times,serif" font-size="14.00">e</text>
</g>
<!-- e&#45;&#45;a -->
<g id="edge6" class="edge">
<title>e&#45;&#45;a</title>
<path fill="none" stroke="black" d="M139.4,-95.48C129.4,-85.31 116.27,-71.94 106.29,-61.79"/>
</g>
<!-- e&#45;&#45;c -->
<g id="edge5" class="edge">
<title>e&#45;&#45;c</title>
<path fill="none" stroke="black" d="M127.67,-106.51C123.93,-105.93 120.08,-105.33 116.33,-104.75"/>
</g>
</g>
</svg>
